PathFileType	4	(X/Y/Z)	C:/Users/opensim2020/Desktop/walking_exp_matlab/subject01_walking09_straight_01.trc																																																																																																																															
DataRate	CameraRate	NumFrames	NumMarkers	Units	OrigDataRate	OrigDataStartFrame	OrigNumFrames																																																																																																																											
100	100	8	43	mm	100	1196	485																																																																																																																											
Frame#	Time	LFHD			RFHD			LBHD			RBHD			C7			T10			CLAV			STRN			RBAK			LSHO			LUPA			LELB			LFRM			LWRA			LWRB			LFIN			RSHO			RUPA			RELB			RFRM			RWRA			RWRB			RFIN			LASI			RASI			LPSI			RPSI			LTHI			LKNE			LTIB			LANK			LHEE			LTOE			RTHI			RKNE			RTIB			RANK			RHEE			RTOE			*39			*40			*41			*42		
		X1	Y1	Z1	X2	Y2	Z2	X3	Y3	Z3	X4	Y4	Z4	X5	Y5	Z5	X6	Y6	Z6	X7	Y7	Z7	X8	Y8	Z8	X9	Y9	Z9	X10	Y10	Z10	X11	Y11	Z11	X12	Y12	Z12	X13	Y13	Z13	X14	Y14	Z14	X15	Y15	Z15	X16	Y16	Z16	X17	Y17	Z17	X18	Y18	Z18	X19	Y19	Z19	X20	Y20	Z20	X21	Y21	Z21	X22	Y22	Z22	X23	Y23	Z23	X24	Y24	Z24	X25	Y25	Z25	X26	Y26	Z26	X27	Y27	Z27	X28	Y28	Z28	X29	Y29	Z29	X30	Y30	Z30	X31	Y31	Z31	X32	Y32	Z32	X33	Y33	Z33	X34	Y34	Z34	X35	Y35	Z35	X36	Y36	Z36	X37	Y37	Z37	X38	Y38	Z38	X39	Y39	Z39	X40	Y40	Z40	X41	Y41	Z41	X42	Y42	Z42	X43	Y43	Z43
																																																																																																																																		
425	4.24	1027.32312	1677.59961	-1071.27441	1029.55347	1682.42078	-957.01862	924.40894	1607.20435	-1075.57751	924.11456	1610.33545	-954.05115	909.99878	1432.23328	-1033.54114	874.7002	1138.91138	-1023.13525	1054.10193	1364.45129	-1026.79822	1096.20203	1207.95764	-1034.70776	854.36237	1236.08154	-959.44196	999.4079	1396.8158	-1189.35156	985.59027	1215.7865	-1280.86487	1000.25916	1063.06787	-1292.50549	1098.60486	997.54303	-1308.4834	1232.3219	964.21936	-1285.46191	1193.92737	922.6814	-1305.26892	1273.13269	898.53833	-1316.29016	985.47919	1389.71899	-877.40277	920.84827	1187.75134	-783.34271	919.68121	1065.11755	-786.20959	932.88635	946.74469	-754.85852	996.82684	819.98322	-771.83069	953.53577	827.25446	-734.36292	980.59119	745.24799	-734.34064	1037.18323	923.0741	-1134.3562	1052.4823	935.30536	-917.91296	854.9458	945.01373	-1066.99829	867.29883	950.56732	-922.242	960.75421	591.53625	-1172.66772	929.44751	459.33395	-1154.828	836.25464	293.6124	-1158.44299	751.93311	92.39413	-1105.39856	700.52948	71.81696	-1051.94519	888.37054	38.14096	-1113.78406	1062.82666	611.33148	-848.03912	1110.0116	463.65469	-876.83063	1107.49658	288.83972	-863.73499	1148.98511	83.39324	-905.41272	1113.97693	34.32846	-956.77515	1293.55542	78.61656	-904.87134	1011.44055	1712.72473	-980.2699	1973.08411	1023.54346	-3101.98071	2012.53613	1022.08069	-3140.70044	NaN	NaN	NaN
426	4.25	1033.00024	1677.14294	-1069.52063	1035.19128	1681.9209	-955.10944	930.2478	1606.48706	-1073.82483	929.92535	1609.54651	-952.30634	916.29443	1431.44446	-1031.67395	881.85345	1138.0918	-1021.29535	1060.69897	1364.12793	-1024.93799	1103.22473	1207.76599	-1032.94177	861.29749	1235.12292	-957.59784	1005.836	1396.40149	-1187.33496	992.44183	1215.45557	-1279.09656	1006.79309	1062.63708	-1290.78589	1104.90186	996.86877	-1306.69641	1238.54944	963.17584	-1283.37366	1200.07263	921.64038	-1303.31165	1279.23718	897.39514	-1314.12244	991.89191	1389.19043	-875.46173	927.27942	1187.14075	-781.68317	926.27466	1064.43738	-784.56805	939.9021	946.14539	-753.3905	1004.2926	819.53967	-770.54626	960.70428	826.55627	-733.16467	988.28076	744.6897	-733.10687	1044.88452	922.7832	-1132.96802	1060.29773	934.80194	-916.41907	862.5238	944.41553	-1065.26233	875.37225	949.89557	-920.63342	966.51129	591.47241	-1171.97363	934.44537	459.27805	-1154.36646	839.70654	294.51984	-1158.15295	752.8172	94.1526	-1106.07007	700.81244	74.45296	-1053.07642	888.41815	38.12503	-1113.94177	1069.56372	610.30756	-847.62378	1116.30688	462.41782	-876.10608	1112.45508	287.26065	-864.05121	1151.00537	82.23454	-906.22284	1114.46655	34.03489	-957.20007	1295.50806	74.21106	-906.53461	1017.16766	1712.37061	-978.30121	1973.16467	1023.5072	-3101.9021	2012.62402	1022.10449	-3140.63794	NaN	NaN	NaN
427	4.26	1038.78259	1676.87109	-1067.53967	1040.92749	1681.61963	-953.15234	936.23816	1605.95532	-1072.06909	935.7616	1608.9386	-950.4845	922.49261	1430.8678	-1029.7002	889.09521	1137.20569	-1019.20776	1067.25	1363.88391	-1022.93695	1110.28931	1207.68298	-1031.04309	868.34418	1234.17297	-955.68536	1012.24695	1396.04541	-1185.35376	999.19824	1215.10657	-1277.20349	1013.29651	1062.21082	-1288.875	1111.19592	996.10077	-1304.79749	1244.65833	961.9176	-1281.31494	1206.07434	920.55896	-1301.43506	1285.20813	896.01599	-1311.96521	998.35852	1388.63989	-873.57489	933.70758	1186.45764	-779.88409	933.06616	1063.69995	-782.90881	946.9292	945.33191	-751.84375	1011.86884	819.04205	-769.16589	968.14624	825.72839	-731.8443	996.32147	744.25751	-731.76404	1052.89026	922.58289	-1131.47839	1068.12024	934.41315	-914.8653	870.31171	943.79889	-1063.3905	883.20691	949.22101	-918.36377	972.55701	591.34839	-1171.1449	939.64764	459.31284	-1153.65173	843.09772	295.62344	-1158.15735	753.86761	96.12669	-1106.80127	701.53723	76.94347	-1053.75403	888.6405	38.06246	-1113.95239	1076.23425	609.37708	-846.76794	1122.96106	461.15942	-875.40649	1116.80054	286.02585	-864.86224	1153.36853	81.64508	-906.89697	1115.05835	34.38925	-957.68195	1297.50354	69.64024	-907.19727	1022.53864	1711.74683	-976.38892	1973.11475	1023.42371	-3101.93359	2012.50098	1022.03235	-3140.68237	NaN	NaN	NaN
428	4.27	1044.5769	1676.89624	-1065.56335	1046.63477	1681.52771	-951.18646	942.25708	1605.62964	-1070.10107	941.75079	1608.60583	-948.52203	928.72345	1430.45544	-1027.59802	896.32983	1136.58289	-1017.19647	1073.82495	1363.78687	-1020.82269	1117.31152	1207.8241	-1029.06348	875.29303	1233.54688	-953.80426	1018.6474	1395.80627	-1183.41431	1005.91107	1214.84155	-1275.17517	1019.72955	1061.8374	-1286.85352	1117.37488	995.35339	-1302.76953	1250.64087	960.49066	-1279.25732	1211.93262	919.32123	-1299.48254	1291.00073	894.4444	-1309.85059	1004.81677	1388.28479	-871.47742	940.10687	1185.82312	-778.0163	939.77142	1063.00769	-781.0882	954.18231	944.61017	-750.18237	1019.68842	818.61768	-767.75299	975.94867	824.96167	-730.41559	1004.26239	743.57056	-730.53992	1060.75061	922.26385	-1129.72363	1075.88306	934.22925	-913.32806	878.1145	943.20795	-1061.66394	891.12573	948.51733	-916.60028	978.9007	591.28876	-1170.02515	945.09839	459.30615	-1152.62842	846.79932	296.82559	-1157.84229	755.12048	98.41338	-1107.4458	702.39081	79.81393	-1054.71899	888.71741	37.94692	-1114.01709	1082.64893	609.31769	-845.58337	1129.71509	460.73901	-874.82733	1121.99194	285.61038	-865.28503	1155.7428	81.49812	-907.10559	1115.73792	35.50637	-958.16205	1299.35474	66.2326	-907.16064	1028.48108	1711.85852	-974.41345	1973.1499	1023.32275	-3101.82275	2012.52087	1022.10236	-3140.67969	NaN	NaN	NaN
429	4.28	1050.48596	1677.12427	-1063.51782	1052.51428	1681.77759	-949.16327	948.3302	1605.70886	-1068.21655	947.75299	1608.58618	-946.55939	935.27313	1430.43762	-1025.6123	903.75641	1136.19397	-1015.32043	1080.53784	1363.95996	-1018.77612	1124.35791	1208.16333	-1026.99231	882.18414	1233.16956	-951.93799	1025.07764	1395.75623	-1181.50671	1012.51025	1214.68176	-1272.98853	1026.18396	1061.53589	-1284.61572	1123.4165	994.55469	-1300.62415	1256.48193	958.95624	-1277.26563	1217.54785	918.03882	-1297.50354	1296.48206	892.64429	-1307.71753	1011.22919	1388.12341	-869.07904	946.80304	1185.33789	-776.08386	946.76392	1062.38538	-779.2583	961.45319	943.81299	-748.54626	1027.58423	818.28943	-766.32001	983.77539	824.3902	-729.16443	1012.53125	743.18085	-729.26617	1068.63147	922.06287	-1127.55188	1083.71838	934.245	-911.65753	885.92834	942.76398	-1059.97412	898.91498	948.10681	-914.64215	985.51849	591.37146	-1168.97998	950.9964	459.49918	-1151.46936	850.78845	298.30219	-1157.52051	756.42383	100.75559	-1107.88782	703.48633	83.17413	-1055.58533	888.90741	38.11525	-1114.13647	1088.55005	609.31195	-844.18317	1136.40393	460.81662	-874.37115	1127.69775	285.8392	-864.77124	1158.03088	81.29575	-906.79462	1117.34082	36.17295	-957.49274	1301.2832	62.67045	-906.27338	1034.15686	1711.97119	-972.37805	1973.172	1023.36591	-3101.9104	2012.54395	1022.07843	-3140.71143	NaN	NaN	NaN
430	4.29	1056.55469	1677.45825	-1061.38708	1058.58325	1682.14868	-947.14178	954.41223	1605.98901	-1066.13708	953.84583	1608.94031	-944.5481	941.92651	1430.54504	-1023.43597	911.28339	1136.04468	-1013.61481	1087.14856	1364.3501	-1016.66626	1131.73938	1208.86438	-1024.81787	888.95142	1232.97754	-950.02594	1031.6488	1395.91565	-1179.55444	1018.96106	1214.64624	-1270.6521	1032.52307	1061.41687	-1282.25879	1129.26038	993.80182	-1298.42017	1262.0863	957.29156	-1275.2146	1222.86145	916.63257	-1295.46045	1301.6427	890.70233	-1305.61157	1017.54144	1388.03333	-867.00537	953.45947	1185.01489	-774.1051	953.78528	1061.9386	-777.47534	968.98267	943.31317	-746.85962	1035.66357	818.17889	-764.87463	991.77502	823.99365	-727.55011	1021.02112	743.1637	-727.74738	1076.83484	922.04413	-1125.74915	1091.54468	934.47247	-909.90802	893.91089	942.36584	-1058.42188	906.53467	947.9986	-912.84674	992.6142	591.58258	-1167.59924	957.37817	459.81348	-1150.27637	855.0437	300.07678	-1157.03198	757.78516	103.76261	-1107.97803	704.74365	86.7451	-1055.89673	889.13879	38.11226	-1114.19104	1094.88135	609.56781	-842.72736	1143.6228	461.47864	-873.31628	1133.8385	286.18002	-863.40491	1159.98206	81.00179	-906.02142	1118.00647	37.32492	-957.50739	1302.60498	58.51717	-905.38422	1039.9281	1712.16992	-970.40326	1973.21619	1023.50793	-3101.89453	2012.53931	1022.00214	-3140.75146	NaN	NaN	NaN
431	4.3	1062.65466	1677.84766	-1059.422	1064.75598	1682.59241	-945.20319	960.50769	1606.42786	-1064.08472	960.04004	1609.36768	-942.52545	948.49713	1430.69556	-1021.54712	918.7865	1135.97705	-1011.97723	1093.77563	1364.91321	-1014.56891	1138.87256	1209.56494	-1022.60358	895.77374	1232.98193	-948.13373	1038.3407	1396.19971	-1177.61938	1025.35999	1214.7533	-1268.26953	1038.77844	1061.57825	-1279.77759	1134.95947	993.17438	-1296.10352	1267.47949	955.53802	-1273.12	1227.87927	915.18756	-1293.20911	1306.40845	888.48584	-1303.31604	1023.97778	1388.12708	-865.08704	960.31879	1184.96069	-772.10248	960.93567	1061.77136	-775.55621	976.6593	943.1452	-745.13452	1043.85779	818.29254	-763.36688	1000.21527	823.85553	-725.96442	1029.54333	743.22223	-726.38422	1084.98584	922.15662	-1123.80115	1099.3501	934.95728	-908.14203	901.90692	942.25049	-1056.96997	914.04889	948.37842	-911.57434	1000.14502	591.96979	-1166.08447	964.29242	460.28265	-1149.1792	859.68823	302.09576	-1156.68518	759.71588	106.73631	-1108.12256	706.35931	90.56284	-1056.15002	889.33698	38.31651	-1114.40869	1101.92249	610.0575	-841.41907	1150.23584	461.50464	-871.88062	1139.54504	286.08868	-861.95441	1161.6394	80.68913	-904.94116	1118.89209	37.89389	-956.93359	1303.8009	54.70455	-904.33783	1046.13855	1712.61584	-968.39362	1973.14478	1023.4306	-3101.96704	2012.45703	1021.9043	-3140.7749	NaN	NaN	NaN
432	4.31	1068.85803	1678.30957	-1057.33545	1071.04199	1683.11658	-943.11682	966.67389	1606.89026	-1061.96106	966.24664	1609.93262	-940.41956	954.97388	1430.85547	-1019.55945	926.16956	1136.08472	-1010.41534	1100.42773	1365.57336	-1012.42871	1146.13074	1210.38489	-1020.41339	902.64056	1232.9906	-946.39294	1045.15186	1396.66089	-1175.48364	1031.69031	1214.89355	-1265.83948	1044.87598	1061.72644	-1277.30383	1140.48157	992.61407	-1293.7384	1272.64929	953.66852	-1270.94519	1232.63403	913.68079	-1290.91309	1310.8363	886.28778	-1301.20154	1030.2644	1388.31812	-863.10358	967.23535	1185.06506	-770.1792	968.10168	1061.78357	-773.82568	984.41528	943.19104	-743.36566	1052.27222	818.78284	-761.91064	1008.57404	824.09265	-724.23969	1038.19507	743.40601	-725.08685	1093.2052	922.50922	-1121.80334	1106.92981	935.59601	-906.22467	909.90527	942.45483	-1055.7207	921.56744	948.93463	-910.2901	1007.99738	592.38934	-1164.59082	971.74194	460.70087	-1147.9436	864.65906	304.255	-1156.24939	761.83612	110.13898	-1108.19006	708.27496	95.39323	-1056.50183	889.61713	38.38437	-1114.26782	1110.01001	610.65686	-840.26312	1156.84436	461.58347	-869.9118	1144.49365	285.85428	-859.78558	1163.14636	80.24061	-904.20544	1119.90149	38.30199	-955.93457	1304.73352	51.77042	-903.64478	1052.65601	1713.48901	-966.43372	1973.13782	1023.39081	-3101.92871	2012.54102	1022.17963	-3140.60742	NaN	NaN	NaN
